<mxfile host="app.diagrams.net" modified="2020-09-28T08:22:43.609Z" agent="5.0 (Windows NT 10.0; Win64; x64) AppleWebKit/537.36 (KHTML, like Gecko) Chrome/85.0.4183.121 Safari/537.36" etag="8BYotn3JbwgIaSU3Ffl0" version="13.7.5" type="github">
  <diagram id="L8ASENM4rJHRghIk_5jl" name="Page-1">
    <mxGraphModel dx="1038" dy="588" grid="1" gridSize="10" guides="1" tooltips="1" connect="1" arrows="1" fold="1" page="1" pageScale="1" pageWidth="1169" pageHeight="1654" math="0" shadow="0">
      <root>
        <mxCell id="0" />
        <mxCell id="1" parent="0" />
        <mxCell id="M6p9xWCjDqDxSQOSftZ3-3" value="Applicant" style="shape=umlActor;verticalLabelPosition=bottom;verticalAlign=top;html=1;outlineConnect=0;fontFamily=Verdana;" vertex="1" parent="1">
          <mxGeometry x="80" y="320" width="40" height="80" as="geometry" />
        </mxCell>
        <mxCell id="M6p9xWCjDqDxSQOSftZ3-5" value="" style="endArrow=classic;html=1;fontFamily=Verdana;exitX=1;exitY=0.3333333333333333;exitDx=0;exitDy=0;exitPerimeter=0;" edge="1" parent="1" source="M6p9xWCjDqDxSQOSftZ3-3">
          <mxGeometry width="50" height="50" relative="1" as="geometry">
            <mxPoint x="330" y="470" as="sourcePoint" />
            <mxPoint x="280" y="320" as="targetPoint" />
          </mxGeometry>
        </mxCell>
        <mxCell id="M6p9xWCjDqDxSQOSftZ3-6" value="" style="endArrow=classic;html=1;fontFamily=Verdana;exitX=1;exitY=0.3333333333333333;exitDx=0;exitDy=0;exitPerimeter=0;entryX=0;entryY=0.5;entryDx=0;entryDy=0;" edge="1" parent="1" source="M6p9xWCjDqDxSQOSftZ3-3" target="M6p9xWCjDqDxSQOSftZ3-9">
          <mxGeometry width="50" height="50" relative="1" as="geometry">
            <mxPoint x="330" y="470" as="sourcePoint" />
            <mxPoint x="280" y="390" as="targetPoint" />
          </mxGeometry>
        </mxCell>
        <mxCell id="M6p9xWCjDqDxSQOSftZ3-7" value="Login" style="ellipse;whiteSpace=wrap;html=1;fontFamily=Verdana;" vertex="1" parent="1">
          <mxGeometry x="280" y="290" width="90" height="60" as="geometry" />
        </mxCell>
        <mxCell id="M6p9xWCjDqDxSQOSftZ3-9" value="Submit details&amp;nbsp;" style="ellipse;whiteSpace=wrap;html=1;fontFamily=Verdana;" vertex="1" parent="1">
          <mxGeometry x="280" y="430" width="90" height="60" as="geometry" />
        </mxCell>
        <mxCell id="M6p9xWCjDqDxSQOSftZ3-10" value="" style="endArrow=classic;html=1;fontFamily=Verdana;exitX=1;exitY=0.3333333333333333;exitDx=0;exitDy=0;exitPerimeter=0;entryX=0;entryY=0.5;entryDx=0;entryDy=0;" edge="1" parent="1" source="M6p9xWCjDqDxSQOSftZ3-3" target="M6p9xWCjDqDxSQOSftZ3-12">
          <mxGeometry width="50" height="50" relative="1" as="geometry">
            <mxPoint x="130" y="350" as="sourcePoint" />
            <mxPoint x="280" y="460" as="targetPoint" />
          </mxGeometry>
        </mxCell>
        <mxCell id="M6p9xWCjDqDxSQOSftZ3-12" value="update details&amp;nbsp;" style="ellipse;whiteSpace=wrap;html=1;fontFamily=Verdana;" vertex="1" parent="1">
          <mxGeometry x="280" y="500" width="90" height="60" as="geometry" />
        </mxCell>
        <mxCell id="M6p9xWCjDqDxSQOSftZ3-14" value="Check status" style="ellipse;whiteSpace=wrap;html=1;fontFamily=Verdana;" vertex="1" parent="1">
          <mxGeometry x="280" y="580" width="90" height="60" as="geometry" />
        </mxCell>
        <mxCell id="M6p9xWCjDqDxSQOSftZ3-15" value="" style="endArrow=classic;html=1;fontFamily=Verdana;dashed=1;entryX=1;entryY=0.5;entryDx=0;entryDy=0;exitX=0;exitY=0.5;exitDx=0;exitDy=0;" edge="1" parent="1" source="M6p9xWCjDqDxSQOSftZ3-14" target="M6p9xWCjDqDxSQOSftZ3-16">
          <mxGeometry width="50" height="50" relative="1" as="geometry">
            <mxPoint x="280" y="530" as="sourcePoint" />
            <mxPoint x="400" y="530" as="targetPoint" />
          </mxGeometry>
        </mxCell>
        <mxCell id="M6p9xWCjDqDxSQOSftZ3-16" value="Check the details&amp;nbsp;" style="ellipse;whiteSpace=wrap;html=1;fontFamily=Verdana;" vertex="1" parent="1">
          <mxGeometry x="150" y="580" width="90" height="60" as="geometry" />
        </mxCell>
        <mxCell id="M6p9xWCjDqDxSQOSftZ3-17" value="Authority" style="shape=umlActor;verticalLabelPosition=bottom;verticalAlign=top;html=1;outlineConnect=0;fontFamily=Verdana;" vertex="1" parent="1">
          <mxGeometry x="520" y="320" width="40" height="80" as="geometry" />
        </mxCell>
        <mxCell id="M6p9xWCjDqDxSQOSftZ3-19" value="Stored Details" style="ellipse;whiteSpace=wrap;html=1;fontFamily=Verdana;" vertex="1" parent="1">
          <mxGeometry x="280" y="660" width="90" height="60" as="geometry" />
        </mxCell>
        <mxCell id="M6p9xWCjDqDxSQOSftZ3-21" value="Verification details&amp;nbsp;" style="ellipse;whiteSpace=wrap;html=1;fontFamily=Verdana;" vertex="1" parent="1">
          <mxGeometry x="280" y="740" width="90" height="60" as="geometry" />
        </mxCell>
        <mxCell id="M6p9xWCjDqDxSQOSftZ3-22" value="Enquiry" style="ellipse;whiteSpace=wrap;html=1;fontFamily=Verdana;" vertex="1" parent="1">
          <mxGeometry x="280" y="820" width="90" height="60" as="geometry" />
        </mxCell>
        <mxCell id="M6p9xWCjDqDxSQOSftZ3-23" value="" style="endArrow=classic;html=1;fontFamily=Verdana;exitX=1;exitY=0.3333333333333333;exitDx=0;exitDy=0;exitPerimeter=0;entryX=0;entryY=0;entryDx=0;entryDy=0;" edge="1" parent="1" source="M6p9xWCjDqDxSQOSftZ3-3" target="M6p9xWCjDqDxSQOSftZ3-14">
          <mxGeometry width="50" height="50" relative="1" as="geometry">
            <mxPoint x="330" y="570" as="sourcePoint" />
            <mxPoint x="380" y="520" as="targetPoint" />
          </mxGeometry>
        </mxCell>
        <mxCell id="M6p9xWCjDqDxSQOSftZ3-24" value="Re-issue" style="ellipse;whiteSpace=wrap;html=1;fontFamily=Verdana;" vertex="1" parent="1">
          <mxGeometry x="280" y="360" width="90" height="60" as="geometry" />
        </mxCell>
        <mxCell id="M6p9xWCjDqDxSQOSftZ3-25" value="" style="endArrow=classic;html=1;fontFamily=Verdana;exitX=1;exitY=0.3333333333333333;exitDx=0;exitDy=0;exitPerimeter=0;" edge="1" parent="1" source="M6p9xWCjDqDxSQOSftZ3-3" target="M6p9xWCjDqDxSQOSftZ3-24">
          <mxGeometry width="50" height="50" relative="1" as="geometry">
            <mxPoint x="330" y="570" as="sourcePoint" />
            <mxPoint x="380" y="520" as="targetPoint" />
          </mxGeometry>
        </mxCell>
        <mxCell id="M6p9xWCjDqDxSQOSftZ3-28" value="Update" style="ellipse;whiteSpace=wrap;html=1;fontFamily=Verdana;" vertex="1" parent="1">
          <mxGeometry x="280" y="900" width="90" height="60" as="geometry" />
        </mxCell>
        <mxCell id="M6p9xWCjDqDxSQOSftZ3-29" value="Issue passport" style="ellipse;whiteSpace=wrap;html=1;fontFamily=Verdana;" vertex="1" parent="1">
          <mxGeometry x="280" y="980" width="90" height="60" as="geometry" />
        </mxCell>
        <mxCell id="M6p9xWCjDqDxSQOSftZ3-30" value="" style="endArrow=classic;html=1;fontFamily=Verdana;exitX=0;exitY=0.3333333333333333;exitDx=0;exitDy=0;exitPerimeter=0;" edge="1" parent="1" source="M6p9xWCjDqDxSQOSftZ3-17">
          <mxGeometry width="50" height="50" relative="1" as="geometry">
            <mxPoint x="330" y="560" as="sourcePoint" />
            <mxPoint x="372" y="320" as="targetPoint" />
          </mxGeometry>
        </mxCell>
        <mxCell id="M6p9xWCjDqDxSQOSftZ3-31" value="" style="endArrow=classic;html=1;fontFamily=Verdana;exitX=0;exitY=0.3333333333333333;exitDx=0;exitDy=0;exitPerimeter=0;" edge="1" parent="1" source="M6p9xWCjDqDxSQOSftZ3-17">
          <mxGeometry width="50" height="50" relative="1" as="geometry">
            <mxPoint x="330" y="560" as="sourcePoint" />
            <mxPoint x="372" y="596" as="targetPoint" />
          </mxGeometry>
        </mxCell>
        <mxCell id="M6p9xWCjDqDxSQOSftZ3-106" value="Dispatch passport" style="ellipse;whiteSpace=wrap;html=1;fontFamily=Verdana;" vertex="1" parent="1">
          <mxGeometry x="280" y="1060" width="90" height="60" as="geometry" />
        </mxCell>
        <mxCell id="M6p9xWCjDqDxSQOSftZ3-107" value="" style="endArrow=classic;html=1;fontFamily=Verdana;exitX=0;exitY=0.3333333333333333;exitDx=0;exitDy=0;exitPerimeter=0;entryX=1.036;entryY=0.357;entryDx=0;entryDy=0;entryPerimeter=0;" edge="1" parent="1" source="M6p9xWCjDqDxSQOSftZ3-17" target="M6p9xWCjDqDxSQOSftZ3-19">
          <mxGeometry width="50" height="50" relative="1" as="geometry">
            <mxPoint x="410" y="680" as="sourcePoint" />
            <mxPoint x="460" y="630" as="targetPoint" />
          </mxGeometry>
        </mxCell>
        <mxCell id="M6p9xWCjDqDxSQOSftZ3-108" value="" style="endArrow=classic;html=1;fontFamily=Verdana;entryX=1;entryY=0.5;entryDx=0;entryDy=0;" edge="1" parent="1" target="M6p9xWCjDqDxSQOSftZ3-21">
          <mxGeometry width="50" height="50" relative="1" as="geometry">
            <mxPoint x="520" y="350" as="sourcePoint" />
            <mxPoint x="383.24" y="691.4200000000001" as="targetPoint" />
          </mxGeometry>
        </mxCell>
        <mxCell id="M6p9xWCjDqDxSQOSftZ3-109" value="" style="endArrow=classic;html=1;fontFamily=Verdana;exitX=0;exitY=1;exitDx=0;exitDy=0;exitPerimeter=0;entryX=1;entryY=0.5;entryDx=0;entryDy=0;" edge="1" parent="1" source="M6p9xWCjDqDxSQOSftZ3-17" target="M6p9xWCjDqDxSQOSftZ3-22">
          <mxGeometry width="50" height="50" relative="1" as="geometry">
            <mxPoint x="410" y="680" as="sourcePoint" />
            <mxPoint x="460" y="630" as="targetPoint" />
          </mxGeometry>
        </mxCell>
        <mxCell id="M6p9xWCjDqDxSQOSftZ3-110" value="" style="endArrow=classic;html=1;fontFamily=Verdana;exitX=0;exitY=1;exitDx=0;exitDy=0;exitPerimeter=0;entryX=1;entryY=0.5;entryDx=0;entryDy=0;" edge="1" parent="1" source="M6p9xWCjDqDxSQOSftZ3-17" target="M6p9xWCjDqDxSQOSftZ3-28">
          <mxGeometry width="50" height="50" relative="1" as="geometry">
            <mxPoint x="410" y="800" as="sourcePoint" />
            <mxPoint x="460" y="750" as="targetPoint" />
          </mxGeometry>
        </mxCell>
        <mxCell id="M6p9xWCjDqDxSQOSftZ3-111" value="" style="endArrow=classic;html=1;fontFamily=Verdana;exitX=1;exitY=1;exitDx=0;exitDy=0;exitPerimeter=0;entryX=1;entryY=0.5;entryDx=0;entryDy=0;" edge="1" parent="1" source="M6p9xWCjDqDxSQOSftZ3-17" target="M6p9xWCjDqDxSQOSftZ3-29">
          <mxGeometry width="50" height="50" relative="1" as="geometry">
            <mxPoint x="410" y="910" as="sourcePoint" />
            <mxPoint x="460" y="860" as="targetPoint" />
          </mxGeometry>
        </mxCell>
        <mxCell id="M6p9xWCjDqDxSQOSftZ3-112" value="" style="endArrow=classic;html=1;fontFamily=Verdana;exitX=1;exitY=1;exitDx=0;exitDy=0;exitPerimeter=0;entryX=1;entryY=0.5;entryDx=0;entryDy=0;" edge="1" parent="1" source="M6p9xWCjDqDxSQOSftZ3-17" target="M6p9xWCjDqDxSQOSftZ3-106">
          <mxGeometry width="50" height="50" relative="1" as="geometry">
            <mxPoint x="410" y="990" as="sourcePoint" />
            <mxPoint x="460" y="940" as="targetPoint" />
          </mxGeometry>
        </mxCell>
        <mxCell id="M6p9xWCjDqDxSQOSftZ3-113" value="Regional Police" style="shape=umlActor;verticalLabelPosition=bottom;verticalAlign=top;html=1;outlineConnect=0;fontFamily=Verdana;" vertex="1" parent="1">
          <mxGeometry x="80" y="890" width="40" height="80" as="geometry" />
        </mxCell>
        <mxCell id="M6p9xWCjDqDxSQOSftZ3-114" value="" style="endArrow=classic;html=1;fontFamily=Verdana;exitX=1;exitY=0.3333333333333333;exitDx=0;exitDy=0;exitPerimeter=0;entryX=0;entryY=0.5;entryDx=0;entryDy=0;" edge="1" parent="1" source="M6p9xWCjDqDxSQOSftZ3-113" target="M6p9xWCjDqDxSQOSftZ3-21">
          <mxGeometry width="50" height="50" relative="1" as="geometry">
            <mxPoint x="410" y="860" as="sourcePoint" />
            <mxPoint x="460" y="810" as="targetPoint" />
          </mxGeometry>
        </mxCell>
        <mxCell id="M6p9xWCjDqDxSQOSftZ3-115" value="" style="endArrow=classic;html=1;fontFamily=Verdana;exitX=1;exitY=0.3333333333333333;exitDx=0;exitDy=0;exitPerimeter=0;entryX=-0.004;entryY=0.623;entryDx=0;entryDy=0;entryPerimeter=0;" edge="1" parent="1" source="M6p9xWCjDqDxSQOSftZ3-113" target="M6p9xWCjDqDxSQOSftZ3-22">
          <mxGeometry width="50" height="50" relative="1" as="geometry">
            <mxPoint x="410" y="860" as="sourcePoint" />
            <mxPoint x="460" y="810" as="targetPoint" />
          </mxGeometry>
        </mxCell>
        <mxCell id="M6p9xWCjDqDxSQOSftZ3-116" value="" style="endArrow=classic;html=1;fontFamily=Verdana;exitX=1;exitY=0.3333333333333333;exitDx=0;exitDy=0;exitPerimeter=0;entryX=0;entryY=0.5;entryDx=0;entryDy=0;" edge="1" parent="1" source="M6p9xWCjDqDxSQOSftZ3-113" target="M6p9xWCjDqDxSQOSftZ3-19">
          <mxGeometry width="50" height="50" relative="1" as="geometry">
            <mxPoint x="410" y="920" as="sourcePoint" />
            <mxPoint x="460" y="870" as="targetPoint" />
          </mxGeometry>
        </mxCell>
        <mxCell id="M6p9xWCjDqDxSQOSftZ3-117" value="Regional administrator&amp;nbsp;" style="shape=umlActor;verticalLabelPosition=bottom;verticalAlign=top;html=1;outlineConnect=0;fontFamily=Verdana;" vertex="1" parent="1">
          <mxGeometry x="520" y="880" width="40" height="80" as="geometry" />
        </mxCell>
        <mxCell id="M6p9xWCjDqDxSQOSftZ3-118" value="" style="endArrow=classic;html=1;fontFamily=Verdana;exitX=0;exitY=0.3333333333333333;exitDx=0;exitDy=0;exitPerimeter=0;entryX=1;entryY=0.5;entryDx=0;entryDy=0;" edge="1" parent="1" source="M6p9xWCjDqDxSQOSftZ3-117" target="M6p9xWCjDqDxSQOSftZ3-14">
          <mxGeometry width="50" height="50" relative="1" as="geometry">
            <mxPoint x="410" y="860" as="sourcePoint" />
            <mxPoint x="460" y="810" as="targetPoint" />
          </mxGeometry>
        </mxCell>
        <mxCell id="M6p9xWCjDqDxSQOSftZ3-119" value="" style="endArrow=classic;html=1;fontFamily=Verdana;exitX=0;exitY=0.3333333333333333;exitDx=0;exitDy=0;exitPerimeter=0;" edge="1" parent="1" source="M6p9xWCjDqDxSQOSftZ3-117" target="M6p9xWCjDqDxSQOSftZ3-28">
          <mxGeometry width="50" height="50" relative="1" as="geometry">
            <mxPoint x="410" y="940" as="sourcePoint" />
            <mxPoint x="460" y="890" as="targetPoint" />
          </mxGeometry>
        </mxCell>
        <mxCell id="M6p9xWCjDqDxSQOSftZ3-120" value="" style="endArrow=classic;html=1;fontFamily=Verdana;exitX=0;exitY=0.3333333333333333;exitDx=0;exitDy=0;exitPerimeter=0;entryX=1;entryY=0.5;entryDx=0;entryDy=0;" edge="1" parent="1" source="M6p9xWCjDqDxSQOSftZ3-117" target="M6p9xWCjDqDxSQOSftZ3-29">
          <mxGeometry width="50" height="50" relative="1" as="geometry">
            <mxPoint x="410" y="970" as="sourcePoint" />
            <mxPoint x="460" y="920" as="targetPoint" />
          </mxGeometry>
        </mxCell>
        <mxCell id="M6p9xWCjDqDxSQOSftZ3-121" value="" style="endArrow=classic;html=1;fontFamily=Verdana;entryX=1;entryY=0.5;entryDx=0;entryDy=0;" edge="1" parent="1" target="M6p9xWCjDqDxSQOSftZ3-106">
          <mxGeometry width="50" height="50" relative="1" as="geometry">
            <mxPoint x="520" y="910" as="sourcePoint" />
            <mxPoint x="460" y="930" as="targetPoint" />
          </mxGeometry>
        </mxCell>
      </root>
    </mxGraphModel>
  </diagram>
</mxfile>
